# xmcd
# Track frame offsets:
# 150
# 19480
# 31983
# 46783
# 60380
# 73363
# 83765
# 92395
# 102910
# 115418
# 126788
# 136103
# 154918
# 170430
# 182745
# 197333
#
# Disc length: 2726 seconds
# Revision: 0
# Processed by: cddbd v1.4PL0 Copyright (c) Steve Scherf et al.
# Submitted via: VisiTrax 2.9.3.171 - For more info visit www.synapsa.com
#
DISCID=cf0aa410
DTITLE=The Animals - The Animals
DYEAR=1990
DGENRE=Blues
TTITLE0=I'm Mad Again
TTITLE1=Roadrunner
TTITLE2=Boom Boom
TTITLE3=I'm In Love Again
TTITLE4=Bury My Body
TTITLE5=Mess Around
TTITLE6=Let The Good Times Roll
TTITLE7=She Said Yeah
TTITLE8=Around And Around
TTITLE9=I Ain't Got You
TTITLE10=Roberta
TTITLE11=Worried Life Blues
TTITLE12=I Believe To My Soul
TTITLE13=Hallelujah, I Love Her So
TTITLE14=How You've Changed
TTITLE15=I've Been Around
EXTD=
EXTT0=
EXTT1=
EXTT2=
EXTT3=
EXTT4=
EXTT5=
EXTT6=
EXTT7=
EXTT8=
EXTT9=
EXTT10=
EXTT11=
EXTT12=
EXTT13=
EXTT14=
EXTT15=
PLAYORDER=
